HIERARCHY
ROOT Hips
{
	OFFSET 2.832361 0.033749 0.669400
	CHANNELS 6 Xposition Yposition Zposition Zrotation Yrotation Xrotation 
	JOINT Spine
	{
		OFFSET 0.000011 8.340382 -2.713908
		CHANNELS 3 Zrotation Yrotation Xrotation
		JOINT Spine1
		{
			OFFSET -0.000010 11.909917 -2.100038
			CHANNELS 3 Zrotation Yrotation Xrotation
			JOINT Spine2
			{
				OFFSET -0.000025 12.047690 -1.054051
				CHANNELS 3 Zrotation Yrotation Xrotation
				JOINT Spine3
				{
					OFFSET -0.000033 12.093753 -0.000038
					CHANNELS 3 Zrotation Yrotation Xrotation
					JOINT Neck
					{
						OFFSET 0.000032 15.549141 1.554852
						CHANNELS 3 Zrotation Yrotation Xrotation
						JOINT Neck1
						{
							OFFSET 0.000029 4.687355 0.410080
							CHANNELS 3 Zrotation Yrotation Xrotation
							JOINT Head
							{
								OFFSET 0.000038 4.633810 0.817004
								CHANNELS 3 Zrotation Yrotation Xrotation
								JOINT HeadEnd
								{
									OFFSET 0.000003 9.727709 -0.000032
									CHANNELS 3 Zrotation Yrotation Xrotation
									End Site
									{
										OFFSET 0.000000 0.000000 0.000000
									}
								}
							}
						}
					}
					JOINT RightShoulder
					{
						OFFSET -0.000011 11.106384 6.072641
						CHANNELS 3 Zrotation Yrotation Xrotation
						JOINT RightArm
						{
							OFFSET -19.427921 0.000022 0.000039
							CHANNELS 3 Zrotation Yrotation Xrotation
							JOINT RightForeArm
							{
								OFFSET -29.350716 0.000018 -0.000091
								CHANNELS 3 Zrotation Yrotation Xrotation
								JOINT RightHand
								{
									OFFSET -27.018035 -0.000025 0.000019
									CHANNELS 3 Zrotation Yrotation Xrotation
									JOINT RightHandMiddle1
									{
										OFFSET -9.244032 -0.000002 -0.000003
										CHANNELS 3 Zrotation Yrotation Xrotation
										JOINT RightHandMiddle2
										{
											OFFSET -4.870025 -0.000025 0.000041
											CHANNELS 3 Zrotation Yrotation Xrotation
											JOINT RightHandMiddle3
											{
												OFFSET -3.169061 0.000002 0.000009
												CHANNELS 3 Zrotation Yrotation Xrotation
												JOINT RightHandMiddle4
												{
													OFFSET -1.888360 0.000004 -0.000037
													CHANNELS 3 Zrotation Yrotation Xrotation
													End Site
													{
														OFFSET 0.000000 0.000000 0.000000
													}
												}
											}
										}
									}
									JOINT RightHandRing
									{
										OFFSET -0.250027 -0.249974 -0.956494
										CHANNELS 3 Zrotation Yrotation Xrotation
										JOINT RightHandRing1
										{
											OFFSET -8.140181 -0.000003 -0.734577
											CHANNELS 3 Zrotation Yrotation Xrotation
											JOINT RightHandRing2
											{
												OFFSET -4.501550 0.000035 -0.406264
												CHANNELS 3 Zrotation Yrotation Xrotation
												JOINT RightHandRing3
												{
													OFFSET -3.068861 -0.000008 -0.276946
													CHANNELS 3 Zrotation Yrotation Xrotation
													JOINT RightHandRing4
													{
														OFFSET -1.869934 0.000020 -0.168734
														CHANNELS 3 Zrotation Yrotation Xrotation
														End Site
														{
															OFFSET 0.000000 0.000000 0.000000
														}
													}
												}
											}
										}
										JOINT RightHandPinky
										{
											OFFSET -0.163017 -0.250016 -0.975108
											CHANNELS 3 Zrotation Yrotation Xrotation
											JOINT RightHandPinky1
											{
												OFFSET -6.681482 0.000022 -1.494090
												CHANNELS 3 Zrotation Yrotation Xrotation
												JOINT RightHandPinky2
												{
													OFFSET -3.580929 -0.000012 -0.800753
													CHANNELS 3 Zrotation Yrotation Xrotation
													JOINT RightHandPinky3
													{
														OFFSET -2.276486 0.000024 -0.509080
														CHANNELS 3 Zrotation Yrotation Xrotation
														JOINT RightHandPinky4
														{
															OFFSET -1.690341 0.000031 -0.377997
															CHANNELS 3 Zrotation Yrotation Xrotation
															End Site
															{
																OFFSET 0.000000 0.000000 0.000000
															}
														}
													}
												}
											}
										}
									}
									JOINT RightHandIndex
									{
										OFFSET -0.250035 -0.250023 0.956505
										CHANNELS 3 Zrotation Yrotation Xrotation
										JOINT RightHandIndex1
										{
											OFFSET -8.934105 0.000007 0.806261
											CHANNELS 3 Zrotation Yrotation Xrotation
											JOINT RightHandIndex2
											{
												OFFSET -4.694688 0.000033 0.423697
												CHANNELS 3 Zrotation Yrotation Xrotation
												JOINT RightHandIndex3
												{
													OFFSET -2.811731 -0.000006 0.253741
													CHANNELS 3 Zrotation Yrotation Xrotation
													JOINT RightHandIndex4
													{
														OFFSET -1.709975 -0.000006 0.154326
														CHANNELS 3 Zrotation Yrotation Xrotation
														End Site
														{
															OFFSET 0.000000 0.000000 0.000000
														}
													}
												}
											}
										}
										JOINT RightHandThumb1
										{
											OFFSET -0.163036 -0.750030 0.975089
											CHANNELS 3 Zrotation Yrotation Xrotation
											JOINT RightHandThumb2
											{
												OFFSET -5.411662 0.835511 2.244710
												CHANNELS 3 Zrotation Yrotation Xrotation
												JOINT RightHandThumb3
												{
													OFFSET -3.567185 0.550759 1.479611
													CHANNELS 3 Zrotation Yrotation Xrotation
													JOINT RightHandThumb4
													{
														OFFSET -2.150561 0.332024 0.892015
														CHANNELS 3 Zrotation Yrotation Xrotation
														End Site
														{
															OFFSET 0.000000 0.000000 0.000000
														}
													}
												}
											}
										}
									}
								}
							}
						}
					}
					JOINT LeftShoulder
					{
						OFFSET -0.000010 11.106414 6.072585
						CHANNELS 3 Zrotation Yrotation Xrotation
						JOINT LeftArm
						{
							OFFSET 19.427857 -0.000070 -0.000049
							CHANNELS 3 Zrotation Yrotation Xrotation
							JOINT LeftForeArm
							{
								OFFSET 29.350768 -0.000033 0.000003
								CHANNELS 3 Zrotation Yrotation Xrotation
								JOINT LeftHand
								{
									OFFSET 27.018150 -0.000073 -0.000039
									CHANNELS 3 Zrotation Yrotation Xrotation
									JOINT LeftHandMiddle1
									{
										OFFSET 9.402701 -0.000005 0.000003
										CHANNELS 3 Zrotation Yrotation Xrotation
										JOINT LeftHandMiddle2
										{
											OFFSET 4.950081 0.000008 0.000036
											CHANNELS 3 Zrotation Yrotation Xrotation
											JOINT LeftHandMiddle3
											{
												OFFSET 3.211972 -0.000007 -0.000026
												CHANNELS 3 Zrotation Yrotation Xrotation
												JOINT LeftHandMiddle4
												{
													OFFSET 1.927592 0.000013 -0.000098
													CHANNELS 3 Zrotation Yrotation Xrotation
													End Site
													{
														OFFSET 0.000000 0.000000 0.000000
													}
												}
											}
										}
									}
									JOINT LeftHandRing
									{
										OFFSET 0.249987 -0.250001 -0.906121
										CHANNELS 3 Zrotation Yrotation Xrotation
										JOINT LeftHandRing1
										{
											OFFSET 8.286064 0.000039 -0.747771
											CHANNELS 3 Zrotation Yrotation Xrotation
											JOINT LeftHandRing2
											{
												OFFSET 4.585456 -0.000024 -0.413799
												CHANNELS 3 Zrotation Yrotation Xrotation
												JOINT LeftHandRing3
												{
													OFFSET 3.124410 0.000021 -0.281966
													CHANNELS 3 Zrotation Yrotation Xrotation
													JOINT LeftHandRing4
													{
														OFFSET 1.908782 -0.000036 -0.172249
														CHANNELS 3 Zrotation Yrotation Xrotation
														End Site
														{
															OFFSET 0.000000 0.000000 0.000000
														}
													}
												}
											}
										}
										JOINT LeftHandPinky
										{
											OFFSET 0.167554 -0.250024 -0.924981
											CHANNELS 3 Zrotation Yrotation Xrotation
											JOINT LeftHandPinky1
											{
												OFFSET 6.823480 0.000008 -1.525885
												CHANNELS 3 Zrotation Yrotation Xrotation
												JOINT LeftHandPinky2
												{
													OFFSET 3.642839 0.000003 -0.814602
													CHANNELS 3 Zrotation Yrotation Xrotation
													JOINT LeftHandPinky3
													{
														OFFSET 2.333108 -0.000019 -0.521744
														CHANNELS 3 Zrotation Yrotation Xrotation
														JOINT LeftHandPinky4
														{
															OFFSET 1.725438 -0.000005 -0.385864
															CHANNELS 3 Zrotation Yrotation Xrotation
															End Site
															{
																OFFSET 0.000000 0.000000 0.000000
															}
														}
													}
												}
											}
										}
									}
									JOINT LeftHandIndex
									{
										OFFSET 0.250029 -0.249999 0.906181
										CHANNELS 3 Zrotation Yrotation Xrotation
										JOINT LeftHandIndex1
										{
											OFFSET 9.088020 -0.000002 0.820121
											CHANNELS 3 Zrotation Yrotation Xrotation
											JOINT LeftHandIndex2
											{
												OFFSET 4.776556 0.000016 0.431085
												CHANNELS 3 Zrotation Yrotation Xrotation
												JOINT LeftHandIndex3
												{
													OFFSET 2.865130 -0.000002 0.258584
													CHANNELS 3 Zrotation Yrotation Xrotation
													JOINT LeftHandIndex4
													{
														OFFSET 1.745465 -0.000000 0.157492
														CHANNELS 3 Zrotation Yrotation Xrotation
														End Site
														{
															OFFSET 0.000000 0.000000 0.000000
														}
													}
												}
											}
										}
										JOINT LeftHandThumb1
										{
											OFFSET 0.167545 -0.749989 0.924976
											CHANNELS 3 Zrotation Yrotation Xrotation
											JOINT LeftHandThumb2
											{
												OFFSET 5.551420 0.857144 2.302684
												CHANNELS 3 Zrotation Yrotation Xrotation
												JOINT LeftHandThumb3
												{
													OFFSET 3.625643 0.559787 1.503875
													CHANNELS 3 Zrotation Yrotation Xrotation
													JOINT LeftHandThumb4
													{
														OFFSET 2.195237 0.338959 0.910541
														CHANNELS 3 Zrotation Yrotation Xrotation
														End Site
														{
															OFFSET 0.000000 0.000000 0.000000
														}
													}
												}
											}
										}
									}
								}
							}
						}
					}
				}
			}
		}
	}
	JOINT RightUpLeg
	{
		OFFSET -8.786555 0.000006 0.000007
		CHANNELS 3 Zrotation Yrotation Xrotation
		JOINT RightLeg
		{
			OFFSET -0.000071 -42.170400 -0.000002
			CHANNELS 3 Zrotation Yrotation Xrotation
			JOINT RightFoot
			{
				OFFSET 0.000015 -45.949124 -0.000049
				CHANNELS 3 Zrotation Yrotation Xrotation
				JOINT RightForeFoot
				{
					OFFSET -0.000066 -4.685817 -0.000000
					CHANNELS 3 Zrotation Yrotation Xrotation
					JOINT RightToeBase
					{
						OFFSET -0.000024 0.000020 18.351049
						CHANNELS 3 Zrotation Yrotation Xrotation
						JOINT RightToeBaseEnd
						{
							OFFSET 0.000095 -0.000001 6.416927
							CHANNELS 3 Zrotation Yrotation Xrotation
							End Site
							{
								OFFSET 0.000000 0.000000 0.000000
							}
						}
					}
				}
			}
		}
	}
	JOINT LeftUpLeg
	{
		OFFSET 8.786523 0.000023 0.000007
		CHANNELS 3 Zrotation Yrotation Xrotation
		JOINT LeftLeg
		{
			OFFSET 0.000015 -42.170428 0.000043
			CHANNELS 3 Zrotation Yrotation Xrotation
			JOINT LeftFoot
			{
				OFFSET 0.000039 -45.949137 -0.000012
				CHANNELS 3 Zrotation Yrotation Xrotation
				JOINT LeftForeFoot
				{
					OFFSET 0.000010 -4.685797 0.000020
					CHANNELS 3 Zrotation Yrotation Xrotation
					JOINT LeftToeBase
					{
						OFFSET 0.000020 -0.000009 18.351062
						CHANNELS 3 Zrotation Yrotation Xrotation
						JOINT LeftToeBaseEnd
						{
							OFFSET 0.000038 0.000011 7.521988
							CHANNELS 3 Zrotation Yrotation Xrotation
							End Site
							{
								OFFSET 0.000000 0.000000 0.000000
							}
						}
					}
				}
			}
		}
	}
}
MOTION
Frames: 4
Frame Time: 0.066667
2.832361 0.033749 0.669400 -7.288791 16.715960 2.405817 9.126018 -1.274615 -0.086061 -0.138436 -0.100520 -2.895970 -0.302383 0.833621 -1.931462 0.835541 0.791810 6.915428 4.290349 0.628128 7.939126 -7.952721 4.800515 0.513174 -5.033105 1.198325 1.697232 -0.000170 -0.006061 -0.002573 8.597564 -11.653934 -1.744221 64.487808 11.159340 9.511713 179.999115 48.948391 178.392105 -21.857782 -3.127968 -0.007648 48.225807 -5.599495 0.000103 51.109421 0.000125 0.000801 28.596197 -0.001387 0.002975 0.002853 -0.002139 -0.001628 -1.972355 -1.610597 -5.737442 52.006371 -3.281026 -4.062127 58.210617 2.474245 -4.398524 23.699663 0.441717 -2.079105 -0.000456 0.000241 0.000338 -3.331364 -5.456402 -4.206981 36.331192 7.492217 -7.770456 61.327621 6.710946 -11.314375 40.562164 3.108075 -8.361043 -0.000116 -0.000147 -0.000624 -0.188834 8.192540 -2.715436 35.545971 -15.379285 3.127317 40.843433 -1.260973 3.383024 29.702555 -0.675794 2.564350 0.000552 0.000260 0.001239 7.850961 0.872877 57.484940 8.798346 -4.581879 2.578557 15.173333 -10.324059 3.530934 -0.003845 0.002676 0.000466 -12.186698 7.607307 -1.642424 -60.652493 -3.049827 13.266846 179.996674 -41.023357 -169.374954 14.296012 9.911583 -0.006543 -32.335793 0.636503 -0.000071 -31.705812 -0.000298 -0.000095 -22.262545 0.001343 0.000101 0.000828 -0.000536 -0.001036 -0.192719 0.149248 -12.470970 -19.531527 3.730563 -1.722989 -40.702335 -1.261243 -3.369913 -12.157713 -0.119093 -1.090195 -0.000174 0.000754 0.001530 0.879070 0.286122 -8.315363 -9.704476 10.821897 -2.110091 -33.807838 -2.189845 -7.147528 -28.945189 -1.594658 -6.214759 0.000803 0.001657 0.001555 1.529035 -7.123751 -5.963803 -31.554127 7.542592 2.751496 -21.865440 0.363689 1.929180 -14.204012 0.151139 1.271699 0.001629 0.000906 -0.001173 -10.529739 9.958370 51.688259 -0.479611 7.006539 -0.735439 0.000000 0.000000 0.000000 -0.001745 0.000267 0.000208 5.183355 -5.889492 1.595965 0.002664 0.000904 1.432835 0.000000 0.000000 -0.000000 -0.000000 -0.000000 0.000000 -0.000000 0.000000 0.000000 0.000000 0.000000 0.000000 13.569485 -9.137310 0.778901 -0.001552 0.000858 0.611968 -0.000000 -0.000000 -0.000000 0.000000 -0.000000 0.000000 0.000000 -0.000000 0.000000 -0.000000 0.000000 -0.000000 
2.840218 -0.002089 0.598378 -7.317988 16.618628 2.278830 9.003966 -1.318134 -0.422736 -0.153021 -0.107868 -2.927038 -0.284259 0.656106 -1.944229 0.911501 0.770306 6.881803 4.432740 0.330807 8.409410 -7.926482 4.674983 0.485304 -4.952675 1.174863 1.602608 -0.000399 -0.005871 -0.002049 8.519533 -11.696586 -1.738075 64.316299 12.138387 4.943105 179.999023 49.899174 174.840515 -24.473421 -2.529661 -0.004571 48.449379 -5.717111 -0.000778 51.459980 -0.000125 0.000749 28.556562 -0.001398 0.003045 0.002489 -0.002217 -0.001664 -2.023000 -1.611573 -5.526473 52.331161 -3.222136 -4.079999 58.404690 2.488705 -4.407748 23.704584 0.441554 -2.079352 -0.000458 0.000584 0.000717 -3.333703 -5.479497 -4.228425 36.548698 7.630861 -7.813752 61.335354 6.712711 -11.315593 40.725922 3.132898 -8.389030 0.000047 -0.000139 -0.000322 -0.163266 8.183821 -2.595292 35.919361 -15.427442 3.157628 41.341064 -1.290055 3.417061 29.967789 -0.687115 2.584565 0.000588 0.000388 0.001335 7.810242 0.821508 57.681400 9.001208 -4.587890 2.641937 15.372062 -10.465439 3.559449 -0.003686 0.002379 0.000127 -12.064240 7.397292 -1.584732 -60.665936 -5.332294 10.164697 179.996414 -41.489468 -170.288757 15.236731 9.892632 -0.014336 -32.465359 0.678152 -0.000399 -31.882631 -0.000220 -0.000142 -22.238312 0.001368 -0.000309 0.000643 -0.000358 -0.001017 -0.183504 0.140090 -12.442617 -19.666294 3.743892 -1.734385 -40.834846 -1.266960 -3.379444 -12.103397 -0.117929 -1.085195 -0.000301 0.000561 0.001359 0.877850 0.235656 -8.319578 -9.741055 10.918001 -2.117385 -33.752865 -2.181008 -7.138900 -28.966215 -1.597564 -6.218617 0.000760 0.001510 0.001446 1.522619 -7.113343 -5.942837 -31.659502 7.585298 2.759868 -21.975122 0.365077 1.938861 -14.188700 0.150836 1.270703 0.001454 0.001139 -0.001126 -10.543793 10.056146 51.739902 -0.368487 6.897617 -0.766905 0.000000 0.000000 0.000000 -0.001578 0.000252 0.000487 5.154719 -6.013698 1.792265 0.001982 0.001300 1.568903 0.000000 0.000000 -0.000000 -0.000000 -0.000000 0.000000 -0.000000 0.000000 0.000000 0.000000 0.000000 0.000000 13.629774 -9.040990 1.018715 -0.001167 0.000945 0.724814 -0.000000 -0.000000 -0.000000 0.000000 -0.000000 0.000000 0.000000 -0.000000 0.000000 -0.000000 0.000000 -0.000000 
2.856572 -0.033578 0.530218 -7.343908 16.511456 2.164367 8.904887 -1.357023 -0.714848 -0.163730 -0.115289 -2.954291 -0.264249 0.493861 -1.950180 0.986019 0.750340 6.861612 4.554331 0.069284 8.804495 -7.903277 4.564026 0.473925 -4.883895 1.154573 1.528622 -0.000587 -0.005643 -0.001598 8.458093 -11.740213 -1.734957 64.195091 12.969467 0.889488 179.998932 50.870090 171.507660 -26.840580 -2.069929 -0.002424 48.608223 -5.824656 -0.001603 51.752506 -0.000338 0.000688 28.515646 -0.001405 0.003083 0.002175 -0.002271 -0.001680 -2.066082 -1.611379 -5.346903 52.585648 -3.176774 -4.093901 58.560112 2.500113 -4.415102 23.708963 0.441356 -2.079569 -0.000477 0.000870 0.001086 -3.333784 -5.496468 -4.248755 36.718166 7.742013 -7.847545 61.322269 6.710141 -11.314435 40.859097 3.153023 -8.411714 0.000198 -0.000124 -0.000062 -0.141639 8.174001 -2.490155 36.216255 -15.469558 3.181792 41.770016 -1.315029 3.446252 30.196661 -0.696888 2.601975 0.000620 0.000505 0.001405 7.772681 0.784572 57.840054 9.169822 -4.591673 2.694701 15.545762 -10.588807 3.584629 -0.003551 0.002116 -0.000161 -11.964022 7.213659 -1.534992 -60.682621 -7.304033 7.433965 179.996201 -42.006592 -171.190292 16.072607 9.973229 -0.020685 -32.549541 0.718650 -0.000679 -31.993225 -0.000152 -0.000174 -22.197195 0.001374 -0.000674 0.000478 -0.000196 -0.001008 -0.173724 0.129480 -12.414647 -19.774059 3.756133 -1.743499 -40.877411 -1.267933 -3.382739 -12.041951 -0.116647 -1.079570 -0.000414 0.000369 0.001213 0.875816 0.191702 -8.325299 -9.768695 10.999003 -2.122879 -33.673927 -2.169718 -7.125514 -28.956272 -1.597161 -6.216436 0.000721 0.001383 0.001351 1.520528 -7.100688 -5.920747 -31.729584 7.611708 2.765492 -22.038563 0.365320 1.944585 -14.178486 0.150680 1.270091 0.001309 0.001339 -0.001092 -10.532439 10.095311 51.765312 -0.276801 6.801107 -0.792171 0.000000 0.000000 0.000000 -0.001430 0.000214 0.000739 5.125176 -6.120346 1.957489 0.001339 0.001666 1.693742 0.000000 0.000000 -0.000000 -0.000000 -0.000000 0.000000 -0.000000 0.000000 0.000000 0.000000 0.000000 0.000000 13.678077 -8.936731 1.232929 -0.000831 0.001022 0.829562 -0.000000 -0.000000 -0.000000 0.000000 -0.000000 0.000000 0.000000 -0.000000 0.000000 0.000000 0.000000 -0.000000 
2.881435 -0.060715 0.464937 -7.366566 16.394449 2.062436 8.828792 -1.391280 -0.962424 -0.170560 -0.122785 -2.977729 -0.242350 0.346888 -1.949327 1.059095 0.731914 6.854860 4.655107 -0.156398 9.124045 -7.883106 4.467646 0.479033 -4.826767 1.137457 1.475281 -0.000733 -0.005377 -0.001221 8.413244 -11.784828 -1.734870 64.124825 13.652532 -2.593484 179.998840 51.860531 168.424698 -28.947443 -1.754284 -0.000906 48.702370 -5.922207 -0.002364 51.987011 -0.000513 0.000616 28.473465 -0.001409 0.003089 0.001911 -0.002301 -0.001676 -2.101599 -1.610017 -5.198731 52.769859 -3.144989 -4.103901 58.676888 2.508483 -4.420607 23.712797 0.441120 -2.079756 -0.000513 0.001098 0.001444 -3.331606 -5.507316 -4.267974 36.839523 7.825741 -7.871895 61.288376 6.703235 -11.310905 40.961678 3.168461 -8.429128 0.000338 -0.000101 0.000156 -0.123954 8.163076 -2.400025 36.436604 -15.505942 3.199891 42.130287 -1.335930 3.470685 30.389179 -0.705121 2.616600 0.000648 0.000610 0.001447 7.738280 0.762068 57.960957 9.304190 -4.593250 2.736866 15.694358 -10.694192 3.606488 -0.003440 0.001884 -0.000399 -11.886004 7.056439 -1.493202 -60.702530 -8.959146 5.101981 179.996017 -42.575054 -172.080215 16.803370 10.154502 -0.025598 -32.588360 0.758003 -0.000910 -32.037682 -0.000094 -0.000192 -22.139198 0.001361 -0.000992 0.000334 -0.000051 -0.001009 -0.163378 0.117419 -12.387059 -19.854816 3.767295 -1.750334 -40.830124 -1.264169 -3.379820 -11.973382 -0.115247 -1.073320 -0.000513 0.000179 0.001094 0.872966 0.154261 -8.332531 -9.787383 11.064903 -2.126566 -33.571030 -2.155972 -7.107362 -28.915352 -1.593446 -6.208212 0.000687 0.001277 0.001270 1.522759 -7.085787 -5.897530 -31.764374 7.621842 2.768382 -22.055803 0.364421 1.946363 -14.173363 0.150671 1.269862 0.001194 0.001508 -0.001070 -10.495690 10.075908 51.764431 -0.204536 6.717022 -0.811232 0.000000 0.000000 0.000000 -0.001302 0.000153 0.000964 5.094714 -6.209539 2.091477 0.000735 0.002004 1.807354 0.000000 0.000000 -0.000000 0.000000 0.000000 0.000000 -0.000000 0.000000 0.000000 0.000000 0.000000 0.000000 13.714397 -8.824536 1.421537 -0.000543 0.001089 0.926201 -0.000000 -0.000000 -0.000000 0.000000 -0.000000 0.000000 0.000000 -0.000000 0.000000 0.000000 0.000000 -0.000000 
